solid Default
  facet normal -1.000000e+00 -0.000000e+00 -0.000000e+00
    outer loop
      vertex -5.300000e+01 -3.001000e+01 0.000000e+00
      vertex -5.300000e+01 -3.001000e+01 3.000000e+00
      vertex -5.300000e+01 3.001000e+01 0.000000e+00
    endloop
  endfacet
  facet normal -1.000000e+00 0.000000e+00 0.000000e+00
    outer loop
      vertex -5.300000e+01 3.001000e+01 0.000000e+00
      vertex -5.300000e+01 -3.001000e+01 3.000000e+00
      vertex -5.300000e+01 3.001000e+01 3.000000e+00
    endloop
  endfacet
  facet normal 0.000000e+00 -1.000000e+00 0.000000e+00
    outer loop
      vertex -5.288377e+01 -3.001000e+01 0.000000e+00
      vertex -5.288377e+01 -3.001000e+01 3.000000e+00
      vertex -5.300000e+01 -3.001000e+01 3.000000e+00
    endloop
  endfacet
  facet normal -0.000000e+00 -1.000000e+00 -0.000000e+00
    outer loop
      vertex -5.300000e+01 -3.001000e+01 0.000000e+00
      vertex -5.288377e+01 -3.001000e+01 0.000000e+00
      vertex -5.300000e+01 -3.001000e+01 3.000000e+00
    endloop
  endfacet
  facet normal -0.000000e+00 -0.000000e+00 -1.000000e+00
    outer loop
      vertex -5.300000e+01 -3.001000e+01 0.000000e+00
      vertex -5.300000e+01 3.001000e+01 0.000000e+00
      vertex -5.288377e+01 -3.001000e+01 0.000000e+00
    endloop
  endfacet
  facet normal 0.000000e+00 0.000000e+00 -1.000000e+00
    outer loop
      vertex -5.288377e+01 -3.001000e+01 0.000000e+00
      vertex -5.300000e+01 3.001000e+01 0.000000e+00
      vertex -5.288377e+01 3.001000e+01 0.000000e+00
    endloop
  endfacet
  facet normal 0.000000e+00 0.000000e+00 -1.000000e+00
    outer loop
      vertex -5.288377e+01 3.001000e+01 0.000000e+00
      vertex -5.288377e+01 3.095726e+01 0.000000e+00
      vertex -5.199404e+01 3.265249e+01 0.000000e+00
    endloop
  endfacet
  facet normal 0.000000e+00 0.000000e+00 -1.000000e+00
    outer loop
      vertex -5.288377e+01 3.001000e+01 0.000000e+00
      vertex -5.199404e+01 3.265249e+01 0.000000e+00
      vertex -5.288377e+01 -3.001000e+01 0.000000e+00
    endloop
  endfacet
  facet normal 0.000000e+00 0.000000e+00 -1.000000e+00
    outer loop
      vertex -5.288377e+01 -3.001000e+01 0.000000e+00
      vertex -5.199404e+01 3.265249e+01 0.000000e+00
      vertex -5.041842e+01 3.374007e+01 0.000000e+00
    endloop
  endfacet
  facet normal 0.000000e+00 0.000000e+00 -1.000000e+00
    outer loop
      vertex -5.288377e+01 -3.001000e+01 0.000000e+00
      vertex -5.041842e+01 3.374007e+01 0.000000e+00
      vertex -4.901000e+01 3.391108e+01 0.000000e+00
    endloop
  endfacet
  facet normal 0.000000e+00 0.000000e+00 -1.000000e+00
    outer loop
      vertex -4.901000e+01 3.391108e+01 0.000000e+00
      vertex -4.901000e+01 3.400000e+01 0.000000e+00
      vertex 4.901000e+01 3.400000e+01 0.000000e+00
    endloop
  endfacet
  facet normal 0.000000e+00 0.000000e+00 -1.000000e+00
    outer loop
      vertex -4.901000e+01 3.391108e+01 0.000000e+00
      vertex 4.901000e+01 3.400000e+01 0.000000e+00
      vertex -5.288377e+01 -3.001000e+01 0.000000e+00
    endloop
  endfacet
  facet normal 0.000000e+00 0.000000e+00 -1.000000e+00
    outer loop
      vertex -5.288377e+01 -3.001000e+01 0.000000e+00
      vertex 4.901000e+01 3.400000e+01 0.000000e+00
      vertex 4.901000e+01 3.391351e+01 0.000000e+00
    endloop
  endfacet
  facet normal 0.000000e+00 0.000000e+00 -1.000000e+00
    outer loop
      vertex -5.288377e+01 -3.001000e+01 0.000000e+00
      vertex 4.901000e+01 3.391351e+01 0.000000e+00
      vertex 4.948215e+01 3.397083e+01 0.000000e+00
    endloop
  endfacet
  facet normal 0.000000e+00 0.000000e+00 -1.000000e+00
    outer loop
      vertex -5.288377e+01 -3.001000e+01 0.000000e+00
      vertex 4.948215e+01 3.397083e+01 0.000000e+00
      vertex 5.127226e+01 3.329194e+01 0.000000e+00
    endloop
  endfacet
  facet normal 0.000000e+00 0.000000e+00 -1.000000e+00
    outer loop
      vertex -5.288377e+01 -3.001000e+01 0.000000e+00
      vertex 5.127226e+01 3.329194e+01 0.000000e+00
      vertex 5.254182e+01 3.185889e+01 0.000000e+00
    endloop
  endfacet
  facet normal 0.000000e+00 0.000000e+00 -1.000000e+00
    outer loop
      vertex -5.288377e+01 -3.001000e+01 0.000000e+00
      vertex 5.254182e+01 3.185889e+01 0.000000e+00
      vertex 5.299754e+01 3.001000e+01 0.000000e+00
    endloop
  endfacet
  facet normal 0.000000e+00 0.000000e+00 -1.000000e+00
    outer loop
      vertex -5.288377e+01 -3.001000e+01 0.000000e+00
      vertex 5.299754e+01 3.001000e+01 0.000000e+00
      vertex 5.300000e+01 3.001000e+01 0.000000e+00
    endloop
  endfacet
  facet normal 0.000000e+00 0.000000e+00 -1.000000e+00
    outer loop
      vertex 5.299754e+01 -3.001000e+01 0.000000e+00
      vertex 5.300000e+01 3.001000e+01 0.000000e+00
      vertex 5.300000e+01 -3.001000e+01 0.000000e+00
    endloop
  endfacet
  facet normal 0.000000e+00 0.000000e+00 -1.000000e+00
    outer loop
      vertex -5.288377e+01 -3.001000e+01 0.000000e+00
      vertex 5.300000e+01 3.001000e+01 0.000000e+00
      vertex 5.299754e+01 -3.001000e+01 0.000000e+00
    endloop
  endfacet
  facet normal 0.000000e+00 0.000000e+00 -1.000000e+00
    outer loop
      vertex 4.901000e+01 -3.400000e+01 0.000000e+00
      vertex -5.288377e+01 -3.001000e+01 0.000000e+00
      vertex 4.901000e+01 -3.391351e+01 0.000000e+00
    endloop
  endfacet
  facet normal 0.000000e+00 0.000000e+00 -1.000000e+00
    outer loop
      vertex 5.299754e+01 -3.001000e+01 0.000000e+00
      vertex 5.254182e+01 -3.185889e+01 0.000000e+00
      vertex -5.288377e+01 -3.001000e+01 0.000000e+00
    endloop
  endfacet
  facet normal 0.000000e+00 0.000000e+00 -1.000000e+00
    outer loop
      vertex 5.127226e+01 -3.329194e+01 0.000000e+00
      vertex 4.948215e+01 -3.397084e+01 0.000000e+00
      vertex 4.901000e+01 -3.391351e+01 0.000000e+00
    endloop
  endfacet
  facet normal 0.000000e+00 0.000000e+00 -1.000000e+00
    outer loop
      vertex 4.901000e+01 -3.400000e+01 0.000000e+00
      vertex -4.901000e+01 -3.400000e+01 0.000000e+00
      vertex -4.901000e+01 -3.391108e+01 0.000000e+00
    endloop
  endfacet
  facet normal 0.000000e+00 0.000000e+00 -1.000000e+00
    outer loop
      vertex -5.288377e+01 -3.001000e+01 0.000000e+00
      vertex 5.254182e+01 -3.185889e+01 0.000000e+00
      vertex 5.127226e+01 -3.329194e+01 0.000000e+00
    endloop
  endfacet
  facet normal 0.000000e+00 0.000000e+00 -1.000000e+00
    outer loop
      vertex -5.288377e+01 -3.001000e+01 0.000000e+00
      vertex 5.127226e+01 -3.329194e+01 0.000000e+00
      vertex 4.901000e+01 -3.391351e+01 0.000000e+00
    endloop
  endfacet
  facet normal -0.000000e+00 -0.000000e+00 -1.000000e+00
    outer loop
      vertex -5.041842e+01 -3.374007e+01 0.000000e+00
      vertex -5.288377e+01 -3.001000e+01 0.000000e+00
      vertex -4.901000e+01 -3.391108e+01 0.000000e+00
    endloop
  endfacet
  facet normal 0.000000e+00 0.000000e+00 -1.000000e+00
    outer loop
      vertex -5.288377e+01 -3.001000e+01 0.000000e+00
      vertex 4.901000e+01 -3.400000e+01 0.000000e+00
      vertex -4.901000e+01 -3.391108e+01 0.000000e+00
    endloop
  endfacet
  facet normal 0.000000e+00 0.000000e+00 -1.000000e+00
    outer loop
      vertex -5.288377e+01 -3.001000e+01 0.000000e+00
      vertex -5.041842e+01 -3.374007e+01 0.000000e+00
      vertex -5.199404e+01 -3.265249e+01 0.000000e+00
    endloop
  endfacet
  facet normal 0.000000e+00 0.000000e+00 -1.000000e+00
    outer loop
      vertex -5.288377e+01 -3.001000e+01 0.000000e+00
      vertex -5.199404e+01 -3.265249e+01 0.000000e+00
      vertex -5.288377e+01 -3.095726e+01 0.000000e+00
    endloop
  endfacet
  facet normal 0.000000e+00 1.000000e+00 0.000000e+00
    outer loop
      vertex -5.288377e+01 3.001000e+01 3.000000e+00
      vertex -5.288377e+01 3.001000e+01 0.000000e+00
      vertex -5.300000e+01 3.001000e+01 3.000000e+00
    endloop
  endfacet
  facet normal 0.000000e+00 1.000000e+00 0.000000e+00
    outer loop
      vertex -5.300000e+01 3.001000e+01 3.000000e+00
      vertex -5.288377e+01 3.001000e+01 0.000000e+00
      vertex -5.300000e+01 3.001000e+01 0.000000e+00
    endloop
  endfacet
  facet normal 0.000000e+00 0.000000e+00 1.000000e+00
    outer loop
      vertex -5.300000e+01 3.001000e+01 3.000000e+00
      vertex -5.300000e+01 -3.001000e+01 3.000000e+00
      vertex -5.288377e+01 -3.001000e+01 3.000000e+00
    endloop
  endfacet
  facet normal 0.000000e+00 0.000000e+00 1.000000e+00
    outer loop
      vertex -5.199404e+01 -3.265249e+01 3.000000e+00
      vertex -5.300000e+01 3.001000e+01 3.000000e+00
      vertex -5.288377e+01 -3.001000e+01 3.000000e+00
    endloop
  endfacet
  facet normal 0.000000e+00 0.000000e+00 1.000000e+00
    outer loop
      vertex -5.288377e+01 -3.095726e+01 3.000000e+00
      vertex -5.199404e+01 -3.265249e+01 3.000000e+00
      vertex -5.288377e+01 -3.001000e+01 3.000000e+00
    endloop
  endfacet
  facet normal 0.000000e+00 0.000000e+00 1.000000e+00
    outer loop
      vertex -5.199404e+01 -3.265249e+01 3.000000e+00
      vertex -5.041842e+01 -3.374007e+01 3.000000e+00
      vertex -5.300000e+01 3.001000e+01 3.000000e+00
    endloop
  endfacet
  facet normal 0.000000e+00 0.000000e+00 1.000000e+00
    outer loop
      vertex -5.000000e+01 3.100000e+01 3.000000e+00
      vertex 5.000000e+01 3.100000e+01 3.000000e+00
      vertex 5.254182e+01 3.185889e+01 3.000000e+00
    endloop
  endfacet
  facet normal 0.000000e+00 0.000000e+00 1.000000e+00
    outer loop
      vertex -4.901000e+01 -3.400000e+01 3.000000e+00
      vertex 4.901000e+01 -3.400000e+01 3.000000e+00
      vertex -4.901000e+01 -3.391108e+01 3.000000e+00
    endloop
  endfacet
  facet normal 0.000000e+00 0.000000e+00 1.000000e+00
    outer loop
      vertex 5.000000e+01 3.100000e+01 3.000000e+00
      vertex 5.000000e+01 -3.100000e+01 3.000000e+00
      vertex 5.254182e+01 -3.185889e+01 3.000000e+00
    endloop
  endfacet
  facet normal 0.000000e+00 0.000000e+00 1.000000e+00
    outer loop
      vertex 5.300000e+01 -3.001000e+01 3.000000e+00
      vertex 5.300000e+01 3.001000e+01 3.000000e+00
      vertex 5.299754e+01 3.001000e+01 3.000000e+00
    endloop
  endfacet
  facet normal 0.000000e+00 0.000000e+00 1.000000e+00
    outer loop
      vertex 5.000000e+01 -3.100000e+01 3.000000e+00
      vertex 4.948215e+01 -3.397084e+01 3.000000e+00
      vertex 5.127226e+01 -3.329194e+01 3.000000e+00
    endloop
  endfacet
  facet normal 0.000000e+00 0.000000e+00 1.000000e+00
    outer loop
      vertex 5.000000e+01 -3.100000e+01 3.000000e+00
      vertex 4.901000e+01 -3.391351e+01 3.000000e+00
      vertex 4.948215e+01 -3.397084e+01 3.000000e+00
    endloop
  endfacet
  facet normal 0.000000e+00 0.000000e+00 1.000000e+00
    outer loop
      vertex 5.127226e+01 3.329194e+01 3.000000e+00
      vertex 4.948215e+01 3.397083e+01 3.000000e+00
      vertex 4.901000e+01 3.391351e+01 3.000000e+00
    endloop
  endfacet
  facet normal 0.000000e+00 0.000000e+00 1.000000e+00
    outer loop
      vertex -5.288377e+01 3.095726e+01 3.000000e+00
      vertex -5.041842e+01 3.374007e+01 3.000000e+00
      vertex -5.199404e+01 3.265249e+01 3.000000e+00
    endloop
  endfacet
  facet normal 0.000000e+00 0.000000e+00 1.000000e+00
    outer loop
      vertex 5.000000e+01 -3.100000e+01 3.000000e+00
      vertex -5.000000e+01 -3.100000e+01 3.000000e+00
      vertex -4.901000e+01 -3.391108e+01 3.000000e+00
    endloop
  endfacet
  facet normal 0.000000e+00 0.000000e+00 1.000000e+00
    outer loop
      vertex 4.901000e+01 3.400000e+01 3.000000e+00
      vertex -4.901000e+01 3.400000e+01 3.000000e+00
      vertex -4.901000e+01 3.391108e+01 3.000000e+00
    endloop
  endfacet
  facet normal 0.000000e+00 0.000000e+00 1.000000e+00
    outer loop
      vertex -5.000000e+01 -3.100000e+01 3.000000e+00
      vertex -5.288377e+01 3.001000e+01 3.000000e+00
      vertex -5.300000e+01 3.001000e+01 3.000000e+00
    endloop
  endfacet
  facet normal 0.000000e+00 0.000000e+00 1.000000e+00
    outer loop
      vertex -5.000000e+01 -3.100000e+01 3.000000e+00
      vertex -5.288377e+01 3.095726e+01 3.000000e+00
      vertex -5.288377e+01 3.001000e+01 3.000000e+00
    endloop
  endfacet
  facet normal 0.000000e+00 0.000000e+00 1.000000e+00
    outer loop
      vertex 5.000000e+01 3.100000e+01 3.000000e+00
      vertex 5.299754e+01 -3.001000e+01 3.000000e+00
      vertex 5.300000e+01 -3.001000e+01 3.000000e+00
    endloop
  endfacet
  facet normal 0.000000e+00 0.000000e+00 1.000000e+00
    outer loop
      vertex -5.041842e+01 -3.374007e+01 3.000000e+00
      vertex -5.000000e+01 -3.100000e+01 3.000000e+00
      vertex -5.300000e+01 3.001000e+01 3.000000e+00
    endloop
  endfacet
  facet normal 0.000000e+00 0.000000e+00 1.000000e+00
    outer loop
      vertex -5.041842e+01 -3.374007e+01 3.000000e+00
      vertex -4.901000e+01 -3.391108e+01 3.000000e+00
      vertex -5.000000e+01 -3.100000e+01 3.000000e+00
    endloop
  endfacet
  facet normal 0.000000e+00 0.000000e+00 1.000000e+00
    outer loop
      vertex 5.000000e+01 -3.100000e+01 3.000000e+00
      vertex -4.901000e+01 -3.391108e+01 3.000000e+00
      vertex 4.901000e+01 -3.391351e+01 3.000000e+00
    endloop
  endfacet
  facet normal 0.000000e+00 0.000000e+00 1.000000e+00
    outer loop
      vertex 4.901000e+01 3.400000e+01 3.000000e+00
      vertex -4.901000e+01 3.391108e+01 3.000000e+00
      vertex -5.000000e+01 3.100000e+01 3.000000e+00
    endloop
  endfacet
  facet normal 0.000000e+00 0.000000e+00 1.000000e+00
    outer loop
      vertex 5.000000e+01 3.100000e+01 3.000000e+00
      vertex 5.254182e+01 -3.185889e+01 3.000000e+00
      vertex 5.299754e+01 -3.001000e+01 3.000000e+00
    endloop
  endfacet
  facet normal 0.000000e+00 0.000000e+00 1.000000e+00
    outer loop
      vertex 5.299754e+01 3.001000e+01 3.000000e+00
      vertex 5.254182e+01 3.185889e+01 3.000000e+00
      vertex 5.000000e+01 3.100000e+01 3.000000e+00
    endloop
  endfacet
  facet normal 0.000000e+00 0.000000e+00 1.000000e+00
    outer loop
      vertex 5.127226e+01 -3.329194e+01 3.000000e+00
      vertex 5.254182e+01 -3.185889e+01 3.000000e+00
      vertex 5.000000e+01 -3.100000e+01 3.000000e+00
    endloop
  endfacet
  facet normal 0.000000e+00 0.000000e+00 1.000000e+00
    outer loop
      vertex 4.901000e+01 -3.391351e+01 3.000000e+00
      vertex -4.901000e+01 -3.391108e+01 3.000000e+00
      vertex 4.901000e+01 -3.400000e+01 3.000000e+00
    endloop
  endfacet
  facet normal 0.000000e+00 0.000000e+00 1.000000e+00
    outer loop
      vertex -5.288377e+01 3.095726e+01 3.000000e+00
      vertex -4.901000e+01 3.391108e+01 3.000000e+00
      vertex -5.041842e+01 3.374007e+01 3.000000e+00
    endloop
  endfacet
  facet normal 0.000000e+00 0.000000e+00 1.000000e+00
    outer loop
      vertex -5.288377e+01 3.095726e+01 3.000000e+00
      vertex -5.000000e+01 3.100000e+01 3.000000e+00
      vertex -4.901000e+01 3.391108e+01 3.000000e+00
    endloop
  endfacet
  facet normal 0.000000e+00 0.000000e+00 1.000000e+00
    outer loop
      vertex -5.000000e+01 3.100000e+01 3.000000e+00
      vertex 4.901000e+01 3.391351e+01 3.000000e+00
      vertex 4.901000e+01 3.400000e+01 3.000000e+00
    endloop
  endfacet
  facet normal 0.000000e+00 0.000000e+00 1.000000e+00
    outer loop
      vertex -5.000000e+01 3.100000e+01 3.000000e+00
      vertex 5.127226e+01 3.329194e+01 3.000000e+00
      vertex 4.901000e+01 3.391351e+01 3.000000e+00
    endloop
  endfacet
  facet normal 0.000000e+00 0.000000e+00 1.000000e+00
    outer loop
      vertex -5.000000e+01 3.100000e+01 3.000000e+00
      vertex 5.254182e+01 3.185889e+01 3.000000e+00
      vertex 5.127226e+01 3.329194e+01 3.000000e+00
    endloop
  endfacet
  facet normal 0.000000e+00 0.000000e+00 1.000000e+00
    outer loop
      vertex 5.000000e+01 3.100000e+01 3.000000e+00
      vertex 5.300000e+01 -3.001000e+01 3.000000e+00
      vertex 5.299754e+01 3.001000e+01 3.000000e+00
    endloop
  endfacet
  facet normal 0.000000e+00 0.000000e+00 1.000000e+00
    outer loop
      vertex -5.000000e+01 -3.100000e+01 3.000000e+00
      vertex -5.000000e+01 3.100000e+01 3.000000e+00
      vertex -5.288377e+01 3.095726e+01 3.000000e+00
    endloop
  endfacet
  facet normal -1.000000e+00 -0.000000e+00 -0.000000e+00
    outer loop
      vertex -5.288377e+01 -3.095726e+01 0.000000e+00
      vertex -5.288377e+01 -3.095726e+01 3.000000e+00
      vertex -5.288377e+01 -3.001000e+01 0.000000e+00
    endloop
  endfacet
  facet normal -1.000000e+00 0.000000e+00 0.000000e+00
    outer loop
      vertex -5.288377e+01 -3.001000e+01 0.000000e+00
      vertex -5.288377e+01 -3.095726e+01 3.000000e+00
      vertex -5.288377e+01 -3.001000e+01 3.000000e+00
    endloop
  endfacet
  facet normal -8.854561e-01 -4.647231e-01 -0.000000e+00
    outer loop
      vertex -5.288377e+01 -3.095726e+01 0.000000e+00
      vertex -5.199404e+01 -3.265249e+01 0.000000e+00
      vertex -5.288377e+01 -3.095726e+01 3.000000e+00
    endloop
  endfacet
  facet normal -8.854561e-01 -4.647231e-01 0.000000e+00
    outer loop
      vertex -5.288377e+01 -3.095726e+01 3.000000e+00
      vertex -5.199404e+01 -3.265249e+01 0.000000e+00
      vertex -5.199404e+01 -3.265249e+01 3.000000e+00
    endloop
  endfacet
  facet normal -5.680649e-01 -8.229838e-01 0.000000e+00
    outer loop
      vertex -5.199404e+01 -3.265249e+01 3.000000e+00
      vertex -5.199404e+01 -3.265249e+01 0.000000e+00
      vertex -5.041842e+01 -3.374007e+01 0.000000e+00
    endloop
  endfacet
  facet normal -5.680649e-01 -8.229838e-01 0.000000e+00
    outer loop
      vertex -5.041842e+01 -3.374007e+01 3.000000e+00
      vertex -5.199404e+01 -3.265249e+01 3.000000e+00
      vertex -5.041842e+01 -3.374007e+01 0.000000e+00
    endloop
  endfacet
  facet normal -1.205360e-01 -9.927090e-01 0.000000e+00
    outer loop
      vertex -5.041842e+01 -3.374007e+01 3.000000e+00
      vertex -5.041842e+01 -3.374007e+01 0.000000e+00
      vertex -4.901000e+01 -3.391108e+01 0.000000e+00
    endloop
  endfacet
  facet normal -1.205360e-01 -9.927090e-01 0.000000e+00
    outer loop
      vertex -4.901000e+01 -3.391108e+01 3.000000e+00
      vertex -5.041842e+01 -3.374007e+01 3.000000e+00
      vertex -4.901000e+01 -3.391108e+01 0.000000e+00
    endloop
  endfacet
  facet normal -1.000000e+00 0.000000e+00 0.000000e+00
    outer loop
      vertex -4.901000e+01 -3.391108e+01 3.000000e+00
      vertex -4.901000e+01 -3.391108e+01 0.000000e+00
      vertex -4.901000e+01 -3.400000e+01 3.000000e+00
    endloop
  endfacet
  facet normal -1.000000e+00 0.000000e+00 0.000000e+00
    outer loop
      vertex -4.901000e+01 -3.400000e+01 3.000000e+00
      vertex -4.901000e+01 -3.391108e+01 0.000000e+00
      vertex -4.901000e+01 -3.400000e+01 0.000000e+00
    endloop
  endfacet
  facet normal 0.000000e+00 -1.000000e+00 0.000000e+00
    outer loop
      vertex -4.901000e+01 -3.400000e+01 3.000000e+00
      vertex -4.901000e+01 -3.400000e+01 0.000000e+00
      vertex 4.901000e+01 -3.400000e+01 0.000000e+00
    endloop
  endfacet
  facet normal 0.000000e+00 -1.000000e+00 0.000000e+00
    outer loop
      vertex 4.901000e+01 -3.400000e+01 3.000000e+00
      vertex -4.901000e+01 -3.400000e+01 3.000000e+00
      vertex 4.901000e+01 -3.400000e+01 0.000000e+00
    endloop
  endfacet
  facet normal 1.000000e+00 0.000000e+00 0.000000e+00
    outer loop
      vertex 4.901000e+01 -3.391351e+01 0.000000e+00
      vertex 4.901000e+01 -3.391351e+01 3.000000e+00
      vertex 4.901000e+01 -3.400000e+01 3.000000e+00
    endloop
  endfacet
  facet normal 1.000000e+00 0.000000e+00 0.000000e+00
    outer loop
      vertex 4.901000e+01 -3.400000e+01 0.000000e+00
      vertex 4.901000e+01 -3.391351e+01 0.000000e+00
      vertex 4.901000e+01 -3.400000e+01 3.000000e+00
    endloop
  endfacet
  facet normal -1.205360e-01 -9.927090e-01 0.000000e+00
    outer loop
      vertex 4.901000e+01 -3.391351e+01 3.000000e+00
      vertex 4.901000e+01 -3.391351e+01 0.000000e+00
      vertex 4.948215e+01 -3.397084e+01 0.000000e+00
    endloop
  endfacet
  facet normal -1.205360e-01 -9.927090e-01 0.000000e+00
    outer loop
      vertex 4.948215e+01 -3.397084e+01 3.000000e+00
      vertex 4.901000e+01 -3.391351e+01 3.000000e+00
      vertex 4.948215e+01 -3.397084e+01 0.000000e+00
    endloop
  endfacet
  facet normal 3.546051e-01 -9.350162e-01 0.000000e+00
    outer loop
      vertex 4.948215e+01 -3.397084e+01 3.000000e+00
      vertex 4.948215e+01 -3.397084e+01 0.000000e+00
      vertex 5.127226e+01 -3.329194e+01 0.000000e+00
    endloop
  endfacet
  facet normal 3.546051e-01 -9.350162e-01 0.000000e+00
    outer loop
      vertex 5.127226e+01 -3.329194e+01 3.000000e+00
      vertex 4.948215e+01 -3.397084e+01 3.000000e+00
      vertex 5.127226e+01 -3.329194e+01 0.000000e+00
    endloop
  endfacet
  facet normal 7.485107e-01 -6.631227e-01 0.000000e+00
    outer loop
      vertex 5.127226e+01 -3.329194e+01 3.000000e+00
      vertex 5.127226e+01 -3.329194e+01 0.000000e+00
      vertex 5.254182e+01 -3.185889e+01 0.000000e+00
    endloop
  endfacet
  facet normal 7.485107e-01 -6.631227e-01 0.000000e+00
    outer loop
      vertex 5.254182e+01 -3.185889e+01 3.000000e+00
      vertex 5.127226e+01 -3.329194e+01 3.000000e+00
      vertex 5.254182e+01 -3.185889e+01 0.000000e+00
    endloop
  endfacet
  facet normal 9.709417e-01 -2.393159e-01 0.000000e+00
    outer loop
      vertex 5.254182e+01 -3.185889e+01 3.000000e+00
      vertex 5.254182e+01 -3.185889e+01 0.000000e+00
      vertex 5.299754e+01 -3.001000e+01 0.000000e+00
    endloop
  endfacet
  facet normal 9.709417e-01 -2.393159e-01 0.000000e+00
    outer loop
      vertex 5.299754e+01 -3.001000e+01 3.000000e+00
      vertex 5.254182e+01 -3.185889e+01 3.000000e+00
      vertex 5.299754e+01 -3.001000e+01 0.000000e+00
    endloop
  endfacet
  facet normal 0.000000e+00 -1.000000e+00 0.000000e+00
    outer loop
      vertex 5.300000e+01 -3.001000e+01 0.000000e+00
      vertex 5.300000e+01 -3.001000e+01 3.000000e+00
      vertex 5.299754e+01 -3.001000e+01 3.000000e+00
    endloop
  endfacet
  facet normal -0.000000e+00 -1.000000e+00 -0.000000e+00
    outer loop
      vertex 5.299754e+01 -3.001000e+01 0.000000e+00
      vertex 5.300000e+01 -3.001000e+01 0.000000e+00
      vertex 5.299754e+01 -3.001000e+01 3.000000e+00
    endloop
  endfacet
  facet normal 1.000000e+00 0.000000e+00 0.000000e+00
    outer loop
      vertex 5.300000e+01 -3.001000e+01 3.000000e+00
      vertex 5.300000e+01 -3.001000e+01 0.000000e+00
      vertex 5.300000e+01 3.001000e+01 0.000000e+00
    endloop
  endfacet
  facet normal 1.000000e+00 0.000000e+00 0.000000e+00
    outer loop
      vertex 5.300000e+01 3.001000e+01 3.000000e+00
      vertex 5.300000e+01 -3.001000e+01 3.000000e+00
      vertex 5.300000e+01 3.001000e+01 0.000000e+00
    endloop
  endfacet
  facet normal 0.000000e+00 1.000000e+00 0.000000e+00
    outer loop
      vertex 5.300000e+01 3.001000e+01 3.000000e+00
      vertex 5.300000e+01 3.001000e+01 0.000000e+00
      vertex 5.299754e+01 3.001000e+01 3.000000e+00
    endloop
  endfacet
  facet normal 0.000000e+00 1.000000e+00 0.000000e+00
    outer loop
      vertex 5.299754e+01 3.001000e+01 3.000000e+00
      vertex 5.300000e+01 3.001000e+01 0.000000e+00
      vertex 5.299754e+01 3.001000e+01 0.000000e+00
    endloop
  endfacet
  facet normal 9.709417e-01 2.393159e-01 0.000000e+00
    outer loop
      vertex 5.299754e+01 3.001000e+01 0.000000e+00
      vertex 5.254182e+01 3.185889e+01 0.000000e+00
      vertex 5.254182e+01 3.185889e+01 3.000000e+00
    endloop
  endfacet
  facet normal 9.709417e-01 2.393159e-01 0.000000e+00
    outer loop
      vertex 5.299754e+01 3.001000e+01 3.000000e+00
      vertex 5.299754e+01 3.001000e+01 0.000000e+00
      vertex 5.254182e+01 3.185889e+01 3.000000e+00
    endloop
  endfacet
  facet normal 7.485107e-01 6.631227e-01 0.000000e+00
    outer loop
      vertex 5.254182e+01 3.185889e+01 0.000000e+00
      vertex 5.127226e+01 3.329194e+01 0.000000e+00
      vertex 5.127226e+01 3.329194e+01 3.000000e+00
    endloop
  endfacet
  facet normal 7.485107e-01 6.631227e-01 0.000000e+00
    outer loop
      vertex 5.254182e+01 3.185889e+01 3.000000e+00
      vertex 5.254182e+01 3.185889e+01 0.000000e+00
      vertex 5.127226e+01 3.329194e+01 3.000000e+00
    endloop
  endfacet
  facet normal 3.546051e-01 9.350162e-01 0.000000e+00
    outer loop
      vertex 4.948215e+01 3.397083e+01 0.000000e+00
      vertex 4.948215e+01 3.397083e+01 3.000000e+00
      vertex 5.127226e+01 3.329194e+01 0.000000e+00
    endloop
  endfacet
  facet normal 3.546051e-01 9.350162e-01 0.000000e+00
    outer loop
      vertex 5.127226e+01 3.329194e+01 0.000000e+00
      vertex 4.948215e+01 3.397083e+01 3.000000e+00
      vertex 5.127226e+01 3.329194e+01 3.000000e+00
    endloop
  endfacet
  facet normal -1.205360e-01 9.927090e-01 0.000000e+00
    outer loop
      vertex 4.901000e+01 3.391351e+01 0.000000e+00
      vertex 4.901000e+01 3.391351e+01 3.000000e+00
      vertex 4.948215e+01 3.397083e+01 0.000000e+00
    endloop
  endfacet
  facet normal -1.205360e-01 9.927090e-01 0.000000e+00
    outer loop
      vertex 4.948215e+01 3.397083e+01 0.000000e+00
      vertex 4.901000e+01 3.391351e+01 3.000000e+00
      vertex 4.948215e+01 3.397083e+01 3.000000e+00
    endloop
  endfacet
  facet normal 1.000000e+00 0.000000e+00 0.000000e+00
    outer loop
      vertex 4.901000e+01 3.400000e+01 0.000000e+00
      vertex 4.901000e+01 3.400000e+01 3.000000e+00
      vertex 4.901000e+01 3.391351e+01 3.000000e+00
    endloop
  endfacet
  facet normal 1.000000e+00 0.000000e+00 0.000000e+00
    outer loop
      vertex 4.901000e+01 3.391351e+01 0.000000e+00
      vertex 4.901000e+01 3.400000e+01 0.000000e+00
      vertex 4.901000e+01 3.391351e+01 3.000000e+00
    endloop
  endfacet
  facet normal 0.000000e+00 1.000000e+00 0.000000e+00
    outer loop
      vertex -4.901000e+01 3.400000e+01 0.000000e+00
      vertex -4.901000e+01 3.400000e+01 3.000000e+00
      vertex 4.901000e+01 3.400000e+01 0.000000e+00
    endloop
  endfacet
  facet normal 0.000000e+00 1.000000e+00 0.000000e+00
    outer loop
      vertex 4.901000e+01 3.400000e+01 0.000000e+00
      vertex -4.901000e+01 3.400000e+01 3.000000e+00
      vertex 4.901000e+01 3.400000e+01 3.000000e+00
    endloop
  endfacet
  facet normal -1.000000e+00 0.000000e+00 0.000000e+00
    outer loop
      vertex -4.901000e+01 3.400000e+01 3.000000e+00
      vertex -4.901000e+01 3.400000e+01 0.000000e+00
      vertex -4.901000e+01 3.391108e+01 3.000000e+00
    endloop
  endfacet
  facet normal -1.000000e+00 0.000000e+00 0.000000e+00
    outer loop
      vertex -4.901000e+01 3.391108e+01 3.000000e+00
      vertex -4.901000e+01 3.400000e+01 0.000000e+00
      vertex -4.901000e+01 3.391108e+01 0.000000e+00
    endloop
  endfacet
  facet normal -1.205360e-01 9.927090e-01 0.000000e+00
    outer loop
      vertex -5.041842e+01 3.374007e+01 0.000000e+00
      vertex -5.041842e+01 3.374007e+01 3.000000e+00
      vertex -4.901000e+01 3.391108e+01 0.000000e+00
    endloop
  endfacet
  facet normal -1.205360e-01 9.927090e-01 0.000000e+00
    outer loop
      vertex -4.901000e+01 3.391108e+01 0.000000e+00
      vertex -5.041842e+01 3.374007e+01 3.000000e+00
      vertex -4.901000e+01 3.391108e+01 3.000000e+00
    endloop
  endfacet
  facet normal -5.680649e-01 8.229838e-01 0.000000e+00
    outer loop
      vertex -5.199404e+01 3.265249e+01 0.000000e+00
      vertex -5.199404e+01 3.265249e+01 3.000000e+00
      vertex -5.041842e+01 3.374007e+01 0.000000e+00
    endloop
  endfacet
  facet normal -5.680649e-01 8.229838e-01 0.000000e+00
    outer loop
      vertex -5.041842e+01 3.374007e+01 0.000000e+00
      vertex -5.199404e+01 3.265249e+01 3.000000e+00
      vertex -5.041842e+01 3.374007e+01 3.000000e+00
    endloop
  endfacet
  facet normal -8.854561e-01 4.647231e-01 0.000000e+00
    outer loop
      vertex -5.288377e+01 3.095726e+01 0.000000e+00
      vertex -5.288377e+01 3.095726e+01 3.000000e+00
      vertex -5.199404e+01 3.265249e+01 0.000000e+00
    endloop
  endfacet
  facet normal -8.854561e-01 4.647231e-01 0.000000e+00
    outer loop
      vertex -5.199404e+01 3.265249e+01 0.000000e+00
      vertex -5.288377e+01 3.095726e+01 3.000000e+00
      vertex -5.199404e+01 3.265249e+01 3.000000e+00
    endloop
  endfacet
  facet normal -1.000000e+00 -0.000000e+00 -0.000000e+00
    outer loop
      vertex -5.288377e+01 3.001000e+01 0.000000e+00
      vertex -5.288377e+01 3.001000e+01 3.000000e+00
      vertex -5.288377e+01 3.095726e+01 0.000000e+00
    endloop
  endfacet
  facet normal -1.000000e+00 0.000000e+00 0.000000e+00
    outer loop
      vertex -5.288377e+01 3.095726e+01 0.000000e+00
      vertex -5.288377e+01 3.001000e+01 3.000000e+00
      vertex -5.288377e+01 3.095726e+01 3.000000e+00
    endloop
  endfacet
  facet normal -1.000000e+00 -0.000000e+00 -0.000000e+00
    outer loop
      vertex -5.000000e+01 -3.100000e+01 3.000000e+00
      vertex -5.000000e+01 -3.100000e+01 6.000000e+00
      vertex -5.000000e+01 3.100000e+01 3.000000e+00
    endloop
  endfacet
  facet normal -1.000000e+00 0.000000e+00 0.000000e+00
    outer loop
      vertex -5.000000e+01 3.100000e+01 3.000000e+00
      vertex -5.000000e+01 -3.100000e+01 6.000000e+00
      vertex -5.000000e+01 3.100000e+01 6.000000e+00
    endloop
  endfacet
  facet normal 0.000000e+00 -1.000000e+00 0.000000e+00
    outer loop
      vertex -4.600000e+01 -3.100000e+01 4.000000e+00
      vertex -5.000000e+01 -3.100000e+01 3.000000e+00
      vertex 5.000000e+01 -3.100000e+01 3.000000e+00
    endloop
  endfacet
  facet normal 0.000000e+00 -1.000000e+00 0.000000e+00
    outer loop
      vertex -5.000000e+01 -3.100000e+01 6.000000e+00
      vertex -5.000000e+01 -3.100000e+01 3.000000e+00
      vertex -4.600000e+01 -3.100000e+01 4.000000e+00
    endloop
  endfacet
  facet normal 0.000000e+00 -1.000000e+00 0.000000e+00
    outer loop
      vertex -4.600000e+01 -3.100000e+01 5.809017e+00
      vertex 4.600000e+01 -3.100000e+01 5.809017e+00
      vertex -5.000000e+01 -3.100000e+01 6.000000e+00
    endloop
  endfacet
  facet normal 0.000000e+00 -1.000000e+00 0.000000e+00
    outer loop
      vertex -5.000000e+01 -3.100000e+01 6.000000e+00
      vertex -4.600000e+01 -3.100000e+01 4.000000e+00
      vertex -4.600000e+01 -3.100000e+01 5.809017e+00
    endloop
  endfacet
  facet normal 0.000000e+00 -1.000000e+00 0.000000e+00
    outer loop
      vertex 5.000000e+01 -3.100000e+01 6.000000e+00
      vertex 4.600000e+01 -3.100000e+01 5.809017e+00
      vertex 5.000000e+01 -3.100000e+01 3.000000e+00
    endloop
  endfacet
  facet normal 0.000000e+00 -1.000000e+00 0.000000e+00
    outer loop
      vertex 5.000000e+01 -3.100000e+01 6.000000e+00
      vertex -5.000000e+01 -3.100000e+01 6.000000e+00
      vertex 4.600000e+01 -3.100000e+01 5.809017e+00
    endloop
  endfacet
  facet normal 0.000000e+00 -1.000000e+00 0.000000e+00
    outer loop
      vertex 4.600000e+01 -3.100000e+01 5.809017e+00
      vertex 4.600000e+01 -3.100000e+01 4.000000e+00
      vertex 5.000000e+01 -3.100000e+01 3.000000e+00
    endloop
  endfacet
  facet normal 0.000000e+00 -1.000000e+00 0.000000e+00
    outer loop
      vertex 4.600000e+01 -3.100000e+01 4.000000e+00
      vertex -4.600000e+01 -3.100000e+01 4.000000e+00
      vertex 5.000000e+01 -3.100000e+01 3.000000e+00
    endloop
  endfacet
  facet normal 1.000000e+00 0.000000e+00 0.000000e+00
    outer loop
      vertex 5.000000e+01 -3.100000e+01 6.000000e+00
      vertex 5.000000e+01 -3.100000e+01 3.000000e+00
      vertex 5.000000e+01 3.100000e+01 3.000000e+00
    endloop
  endfacet
  facet normal 1.000000e+00 0.000000e+00 0.000000e+00
    outer loop
      vertex 5.000000e+01 3.100000e+01 6.000000e+00
      vertex 5.000000e+01 -3.100000e+01 6.000000e+00
      vertex 5.000000e+01 3.100000e+01 3.000000e+00
    endloop
  endfacet
  facet normal 0.000000e+00 1.000000e+00 0.000000e+00
    outer loop
      vertex 4.600000e+01 3.100000e+01 4.000000e+00
      vertex 5.000000e+01 3.100000e+01 3.000000e+00
      vertex -4.600000e+01 3.100000e+01 4.000000e+00
    endloop
  endfacet
  facet normal 0.000000e+00 1.000000e+00 0.000000e+00
    outer loop
      vertex 4.600000e+01 3.100000e+01 5.809017e+00
      vertex -5.000000e+01 3.100000e+01 6.000000e+00
      vertex 5.000000e+01 3.100000e+01 6.000000e+00
    endloop
  endfacet
  facet normal 0.000000e+00 1.000000e+00 0.000000e+00
    outer loop
      vertex -5.000000e+01 3.100000e+01 3.000000e+00
      vertex -5.000000e+01 3.100000e+01 6.000000e+00
      vertex -4.600000e+01 3.100000e+01 5.809017e+00
    endloop
  endfacet
  facet normal 0.000000e+00 1.000000e+00 0.000000e+00
    outer loop
      vertex -5.000000e+01 3.100000e+01 3.000000e+00
      vertex -4.600000e+01 3.100000e+01 5.809017e+00
      vertex -4.600000e+01 3.100000e+01 4.000000e+00
    endloop
  endfacet
  facet normal 0.000000e+00 1.000000e+00 0.000000e+00
    outer loop
      vertex -5.000000e+01 3.100000e+01 3.000000e+00
      vertex -4.600000e+01 3.100000e+01 4.000000e+00
      vertex 5.000000e+01 3.100000e+01 3.000000e+00
    endloop
  endfacet
  facet normal 0.000000e+00 1.000000e+00 0.000000e+00
    outer loop
      vertex 5.000000e+01 3.100000e+01 3.000000e+00
      vertex 4.600000e+01 3.100000e+01 4.000000e+00
      vertex 5.000000e+01 3.100000e+01 6.000000e+00
    endloop
  endfacet
  facet normal 0.000000e+00 1.000000e+00 0.000000e+00
    outer loop
      vertex 4.600000e+01 3.100000e+01 4.000000e+00
      vertex 4.600000e+01 3.100000e+01 5.809017e+00
      vertex 5.000000e+01 3.100000e+01 6.000000e+00
    endloop
  endfacet
  facet normal 0.000000e+00 1.000000e+00 0.000000e+00
    outer loop
      vertex -4.600000e+01 3.100000e+01 5.809017e+00
      vertex -5.000000e+01 3.100000e+01 6.000000e+00
      vertex 4.600000e+01 3.100000e+01 5.809017e+00
    endloop
  endfacet
  facet normal 0.000000e+00 0.000000e+00 1.000000e+00
    outer loop
      vertex -4.700000e+01 -2.800000e+01 6.000000e+00
      vertex -5.000000e+01 -3.100000e+01 6.000000e+00
      vertex 5.000000e+01 -3.100000e+01 6.000000e+00
    endloop
  endfacet
  facet normal 0.000000e+00 0.000000e+00 1.000000e+00
    outer loop
      vertex -5.000000e+01 3.100000e+01 6.000000e+00
      vertex -5.000000e+01 -3.100000e+01 6.000000e+00
      vertex -4.700000e+01 -2.800000e+01 6.000000e+00
    endloop
  endfacet
  facet normal 0.000000e+00 0.000000e+00 1.000000e+00
    outer loop
      vertex -4.700000e+01 2.800000e+01 6.000000e+00
      vertex 4.700000e+01 2.800000e+01 6.000000e+00
      vertex -5.000000e+01 3.100000e+01 6.000000e+00
    endloop
  endfacet
  facet normal 0.000000e+00 0.000000e+00 1.000000e+00
    outer loop
      vertex -5.000000e+01 3.100000e+01 6.000000e+00
      vertex -4.700000e+01 -2.800000e+01 6.000000e+00
      vertex -4.700000e+01 2.800000e+01 6.000000e+00
    endloop
  endfacet
  facet normal 0.000000e+00 0.000000e+00 1.000000e+00
    outer loop
      vertex 5.000000e+01 3.100000e+01 6.000000e+00
      vertex 4.700000e+01 2.800000e+01 6.000000e+00
      vertex 5.000000e+01 -3.100000e+01 6.000000e+00
    endloop
  endfacet
  facet normal 0.000000e+00 0.000000e+00 1.000000e+00
    outer loop
      vertex 5.000000e+01 3.100000e+01 6.000000e+00
      vertex -5.000000e+01 3.100000e+01 6.000000e+00
      vertex 4.700000e+01 2.800000e+01 6.000000e+00
    endloop
  endfacet
  facet normal 0.000000e+00 0.000000e+00 1.000000e+00
    outer loop
      vertex 4.700000e+01 2.800000e+01 6.000000e+00
      vertex 4.700000e+01 -2.800000e+01 6.000000e+00
      vertex 5.000000e+01 -3.100000e+01 6.000000e+00
    endloop
  endfacet
  facet normal 0.000000e+00 0.000000e+00 1.000000e+00
    outer loop
      vertex 4.700000e+01 -2.800000e+01 6.000000e+00
      vertex -4.700000e+01 -2.800000e+01 6.000000e+00
      vertex 5.000000e+01 -3.100000e+01 6.000000e+00
    endloop
  endfacet
  facet normal -1.000000e+00 -0.000000e+00 -0.000000e+00
    outer loop
      vertex -4.600000e+01 -3.158779e+01 5.809017e+00
      vertex -4.600000e+01 -3.100000e+01 5.809017e+00
      vertex -4.600000e+01 -3.195106e+01 4.690983e+00
    endloop
  endfacet
  facet normal -1.000000e+00 -0.000000e+00 -0.000000e+00
    outer loop
      vertex -4.600000e+01 -3.195106e+01 4.690983e+00
      vertex -4.600000e+01 -3.100000e+01 5.809017e+00
      vertex -4.600000e+01 -3.100000e+01 4.000000e+00
    endloop
  endfacet
  facet normal 0.000000e+00 -5.877851e-01 -8.090171e-01
    outer loop
      vertex -4.600000e+01 -3.195106e+01 4.690983e+00
      vertex -4.600000e+01 -3.100000e+01 4.000000e+00
      vertex 4.600000e+01 -3.195106e+01 4.690983e+00
    endloop
  endfacet
  facet normal 0.000000e+00 -5.877851e-01 -8.090171e-01
    outer loop
      vertex 4.600000e+01 -3.195106e+01 4.690983e+00
      vertex -4.600000e+01 -3.100000e+01 4.000000e+00
      vertex 4.600000e+01 -3.100000e+01 4.000000e+00
    endloop
  endfacet
  facet normal 1.000000e+00 0.000000e+00 0.000000e+00
    outer loop
      vertex 4.600000e+01 -3.100000e+01 5.809017e+00
      vertex 4.600000e+01 -3.158779e+01 5.809017e+00
      vertex 4.600000e+01 -3.195106e+01 4.690983e+00
    endloop
  endfacet
  facet normal 1.000000e+00 0.000000e+00 0.000000e+00
    outer loop
      vertex 4.600000e+01 -3.100000e+01 4.000000e+00
      vertex 4.600000e+01 -3.100000e+01 5.809017e+00
      vertex 4.600000e+01 -3.195106e+01 4.690983e+00
    endloop
  endfacet
  facet normal 0.000000e+00 0.000000e+00 1.000000e+00
    outer loop
      vertex -4.600000e+01 -3.100000e+01 5.809017e+00
      vertex -4.600000e+01 -3.158779e+01 5.809017e+00
      vertex 4.600000e+01 -3.158779e+01 5.809017e+00
    endloop
  endfacet
  facet normal 0.000000e+00 0.000000e+00 1.000000e+00
    outer loop
      vertex 4.600000e+01 -3.100000e+01 5.809017e+00
      vertex -4.600000e+01 -3.100000e+01 5.809017e+00
      vertex 4.600000e+01 -3.158779e+01 5.809017e+00
    endloop
  endfacet
  facet normal -1.000000e+00 -0.000000e+00 -0.000000e+00
    outer loop
      vertex -4.600000e+01 3.100000e+01 5.809017e+00
      vertex -4.600000e+01 3.158778e+01 5.809017e+00
      vertex -4.600000e+01 3.100000e+01 4.000000e+00
    endloop
  endfacet
  facet normal -1.000000e+00 0.000000e+00 0.000000e+00
    outer loop
      vertex -4.600000e+01 3.100000e+01 4.000000e+00
      vertex -4.600000e+01 3.158778e+01 5.809017e+00
      vertex -4.600000e+01 3.195106e+01 4.690983e+00
    endloop
  endfacet
  facet normal 0.000000e+00 0.000000e+00 1.000000e+00
    outer loop
      vertex -4.600000e+01 3.158778e+01 5.809017e+00
      vertex -4.600000e+01 3.100000e+01 5.809017e+00
      vertex 4.600000e+01 3.100000e+01 5.809017e+00
    endloop
  endfacet
  facet normal 0.000000e+00 0.000000e+00 1.000000e+00
    outer loop
      vertex 4.600000e+01 3.158778e+01 5.809017e+00
      vertex -4.600000e+01 3.158778e+01 5.809017e+00
      vertex 4.600000e+01 3.100000e+01 5.809017e+00
    endloop
  endfacet
  facet normal 1.000000e+00 0.000000e+00 0.000000e+00
    outer loop
      vertex 4.600000e+01 3.158778e+01 5.809017e+00
      vertex 4.600000e+01 3.100000e+01 5.809017e+00
      vertex 4.600000e+01 3.100000e+01 4.000000e+00
    endloop
  endfacet
  facet normal 1.000000e+00 0.000000e+00 0.000000e+00
    outer loop
      vertex 4.600000e+01 3.195106e+01 4.690983e+00
      vertex 4.600000e+01 3.158778e+01 5.809017e+00
      vertex 4.600000e+01 3.100000e+01 4.000000e+00
    endloop
  endfacet
  facet normal 0.000000e+00 5.877851e-01 -8.090171e-01
    outer loop
      vertex -4.600000e+01 3.195106e+01 4.690983e+00
      vertex 4.600000e+01 3.195106e+01 4.690983e+00
      vertex -4.600000e+01 3.100000e+01 4.000000e+00
    endloop
  endfacet
  facet normal 0.000000e+00 5.877851e-01 -8.090171e-01
    outer loop
      vertex -4.600000e+01 3.100000e+01 4.000000e+00
      vertex 4.600000e+01 3.195106e+01 4.690983e+00
      vertex 4.600000e+01 3.100000e+01 4.000000e+00
    endloop
  endfacet
  facet normal 1.000000e+00 0.000000e+00 0.000000e+00
    outer loop
      vertex -4.700000e+01 2.800000e+01 3.000000e+00
      vertex -4.700000e+01 2.800000e+01 6.000000e+00
      vertex -4.700000e+01 -2.800000e+01 6.000000e+00
    endloop
  endfacet
  facet normal 1.000000e+00 0.000000e+00 0.000000e+00
    outer loop
      vertex -4.700000e+01 -2.800000e+01 3.000000e+00
      vertex -4.700000e+01 2.800000e+01 3.000000e+00
      vertex -4.700000e+01 -2.800000e+01 6.000000e+00
    endloop
  endfacet
  facet normal 0.000000e+00 1.000000e+00 0.000000e+00
    outer loop
      vertex 4.700000e+01 -2.800000e+01 6.000000e+00
      vertex 4.700000e+01 -2.800000e+01 3.000000e+00
      vertex -4.700000e+01 -2.800000e+01 6.000000e+00
    endloop
  endfacet
  facet normal 0.000000e+00 1.000000e+00 0.000000e+00
    outer loop
      vertex -4.700000e+01 -2.800000e+01 6.000000e+00
      vertex 4.700000e+01 -2.800000e+01 3.000000e+00
      vertex -4.700000e+01 -2.800000e+01 3.000000e+00
    endloop
  endfacet
  facet normal -1.000000e+00 0.000000e+00 0.000000e+00
    outer loop
      vertex 4.700000e+01 2.800000e+01 6.000000e+00
      vertex 4.700000e+01 2.800000e+01 3.000000e+00
      vertex 4.700000e+01 -2.800000e+01 6.000000e+00
    endloop
  endfacet
  facet normal -1.000000e+00 0.000000e+00 0.000000e+00
    outer loop
      vertex 4.700000e+01 -2.800000e+01 6.000000e+00
      vertex 4.700000e+01 2.800000e+01 3.000000e+00
      vertex 4.700000e+01 -2.800000e+01 3.000000e+00
    endloop
  endfacet
  facet normal 0.000000e+00 -1.000000e+00 0.000000e+00
    outer loop
      vertex 4.700000e+01 2.800000e+01 3.000000e+00
      vertex 4.700000e+01 2.800000e+01 6.000000e+00
      vertex -4.700000e+01 2.800000e+01 6.000000e+00
    endloop
  endfacet
  facet normal -0.000000e+00 -1.000000e+00 -0.000000e+00
    outer loop
      vertex -4.700000e+01 2.800000e+01 3.000000e+00
      vertex 4.700000e+01 2.800000e+01 3.000000e+00
      vertex -4.700000e+01 2.800000e+01 6.000000e+00
    endloop
  endfacet
  facet normal 0.000000e+00 -9.510562e-01 3.090180e-01
    outer loop
      vertex 4.600000e+01 -3.158779e+01 5.809017e+00
      vertex -4.600000e+01 -3.158779e+01 5.809017e+00
      vertex -4.600000e+01 -3.195106e+01 4.690983e+00
    endloop
  endfacet
  facet normal 0.000000e+00 -9.510562e-01 3.090180e-01
    outer loop
      vertex 4.600000e+01 -3.195106e+01 4.690983e+00
      vertex 4.600000e+01 -3.158779e+01 5.809017e+00
      vertex -4.600000e+01 -3.195106e+01 4.690983e+00
    endloop
  endfacet
  facet normal 0.000000e+00 9.510562e-01 3.090180e-01
    outer loop
      vertex -4.600000e+01 3.158778e+01 5.809017e+00
      vertex 4.600000e+01 3.158778e+01 5.809017e+00
      vertex -4.600000e+01 3.195106e+01 4.690983e+00
    endloop
  endfacet
  facet normal 0.000000e+00 9.510562e-01 3.090180e-01
    outer loop
      vertex -4.600000e+01 3.195106e+01 4.690983e+00
      vertex 4.600000e+01 3.158778e+01 5.809017e+00
      vertex 4.600000e+01 3.195106e+01 4.690983e+00
    endloop
  endfacet
  facet normal 0.000000e+00 0.000000e+00 1.000000e+00
    outer loop
      vertex -4.700000e+01 2.800000e+01 3.000000e+00
      vertex -4.700000e+01 -2.800000e+01 3.000000e+00
      vertex 4.700000e+01 -2.800000e+01 3.000000e+00
    endloop
  endfacet
  facet normal 0.000000e+00 0.000000e+00 1.000000e+00
    outer loop
      vertex 4.700000e+01 2.800000e+01 3.000000e+00
      vertex -4.700000e+01 2.800000e+01 3.000000e+00
      vertex 4.700000e+01 -2.800000e+01 3.000000e+00
    endloop
  endfacet
endsolid Default
